<svg width="23" height="23" viewBox="0 0 23 23" fill="none" xmlns="http://www.w3.org/2000/svg">
<path id="Exclude" fill-rule="evenodd" clip-rule="evenodd" d="M11.5 0C17.8412 0 23 5.15882 23 11.5C23 17.8412 17.8412 23 11.5 23C9.43335 23 7.42118 22.4499 5.65459 21.4054L0.0422353 22.9575L1.59471 17.3454C0.550118 15.5788 0 13.5666 0 11.5C0 5.15882 5.15882 0 11.5 0ZM11.1172 12.0208C12.9765 12.0208 14.4836 9.22508 14.4836 7.36593C14.4836 5.50709 12.9765 4 11.1172 4C9.25821 4 7.75112 5.50709 7.75112 7.36593C7.75112 9.22508 9.25821 12.0208 11.1172 12.0208ZM8.39257 17.6224C8.49635 17.6224 8.60136 17.6221 8.70755 17.6218C8.81616 17.6215 8.92601 17.6212 9.03706 17.6212H13.1944C13.3045 17.6212 13.4134 17.6215 13.5212 17.6218L13.5236 17.6218L13.527 17.6218C13.632 17.6221 13.7359 17.6224 13.8386 17.6224C15.7623 17.6224 17.2321 17.524 17.2321 15.5131C17.2321 13.4082 15.6224 11.6803 13.5666 11.4925C13.5503 12.2289 11.1164 14.0461 11.1164 14.0461C11.1164 14.0461 8.68197 12.229 8.66547 11.4926C6.61001 11.6803 5 13.4082 5 15.5131C5 17.524 6.46925 17.6224 8.39257 17.6224ZM12.9323 14.8763C12.9323 14.8163 12.9863 14.7681 13.0535 14.7681H13.711V14.1109C13.711 14.0443 13.759 13.9896 13.819 13.9896H14.4678C14.5275 13.9896 14.5758 14.0438 14.5758 14.1109V14.7682H15.233C15.2996 14.7682 15.354 14.8165 15.354 14.8764V15.525C15.354 15.5849 15.3 15.6332 15.233 15.6332H14.5756V16.2904C14.5756 16.3573 14.5272 16.4115 14.4674 16.4115H13.8188C13.7589 16.4115 13.7106 16.3575 13.7106 16.2904V15.6331H13.0534C12.9865 15.6331 12.9321 15.5848 12.9321 15.5249L12.9323 14.8763Z" fill="black"/>
</svg>
